<svg width="785" height="734" viewBox="0 0 785 734" fill="none" xmlns="http://www.w3.org/2000/svg">
<rect width="785" height="734" fill="white"/>
<g clip-path="url(#clip0)">
<path d="M624.745 521.218C624.745 521.218 721.785 526.235 699.182 556.783C676.58 587.331 617.188 538.863 617.188 538.863L624.745 521.218Z" fill="#FFB8B8"/>
<path d="M445.916 230.251L465.668 235.189C465.668 235.189 477.19 269.756 485.42 301.03C493.65 332.304 510.11 426.126 510.11 426.126L637.72 515.559L622.5 549.607L452.5 482.607L414.641 333.95L445.916 230.251Z" fill="#575A89"/>
<path opacity="0.2" d="M464.5 291.607L457.138 445.772L472.5 491.607L427.5 458.607L464.5 291.607Z" fill="black"/>
<path d="M491.181 565.214C491.181 565.214 512.579 622.824 515.871 662.328C519.163 701.832 522.455 733.107 522.455 733.107H422.048L402.296 703.478V733.107H285.43C285.43 733.107 252.51 626.116 265.678 612.948C278.846 599.78 403.942 543.816 403.942 543.816L491.181 565.214Z" fill="#2F2E41"/>
<path d="M682.5 731.607H101.5V733.607H682.5V731.607Z" fill="#3F3D56"/>
<path d="M365.261 167.703C399.806 167.703 427.81 139.699 427.81 105.155C427.81 70.6104 399.806 42.6066 365.261 42.6066C330.717 42.6066 302.713 70.6104 302.713 105.155C302.713 139.699 330.717 167.703 365.261 167.703Z" fill="#FFB8B8"/>
<path d="M317.527 131.491L312.589 203.915L375.137 287.862L406.411 208.853C406.411 208.853 378.429 190.747 394.889 152.889L317.527 131.491Z" fill="#FFB8B8"/>
<path d="M500.23 579.203C500.23 594.023 459.08 617.063 459.08 617.063V625.293L442.62 633.523L406.41 561.103L396.54 640.103C396.54 640.103 324.11 651.633 301.07 640.103C278.02 628.583 266.5 633.523 233.58 622.003C200.66 610.483 246.75 455.753 246.75 455.753L213.83 217.083L285.75 181.123L289.54 179.223L299.43 177.403L314.59 174.603L365.26 208.853L369.34 230.253L371.85 243.423L385.01 228.603L394.95 195.913L465.67 235.193L445.92 393.203C445.92 393.203 500.23 564.393 500.23 579.203Z" fill="#575A89"/>
<path d="M258.271 630.231C258.271 630.231 333.987 691.133 297.775 702.655C261.563 714.178 241.811 640.107 241.811 640.107L258.271 630.231Z" fill="#FFB8B8"/>
<path d="M230.289 220.375L213.829 217.083C213.829 217.083 189.138 230.251 187.492 256.588C185.846 282.924 164.448 467.276 164.448 467.276L233.581 653.275L289.545 631.877L235.227 457.4L276.377 305.968L230.289 220.375Z" fill="#575A89"/>
<path d="M372.5 270.607C375.814 270.607 378.5 267.92 378.5 264.607C378.5 261.293 375.814 258.607 372.5 258.607C369.186 258.607 366.5 261.293 366.5 264.607C366.5 267.92 369.186 270.607 372.5 270.607Z" fill="#2F2E41"/>
<path d="M372.5 309.607C375.814 309.607 378.5 306.92 378.5 303.607C378.5 300.293 375.814 297.607 372.5 297.607C369.186 297.607 366.5 300.293 366.5 303.607C366.5 306.92 369.186 309.607 372.5 309.607Z" fill="#2F2E41"/>
<path d="M406.5 566.607C409.814 566.607 412.5 563.92 412.5 560.607C412.5 557.293 409.814 554.607 406.5 554.607C403.186 554.607 400.5 557.293 400.5 560.607C400.5 563.92 403.186 566.607 406.5 566.607Z" fill="#2F2E41"/>
<path d="M312.452 41.077L300.89 36.4481C300.89 36.4481 325.066 9.83178 358.702 12.1463L349.242 1.73117C349.242 1.73117 372.367 -7.52658 393.389 16.7752C404.44 29.55 417.227 44.5663 425.197 61.4818H437.58L432.412 72.8612L450.5 84.2406L431.934 82.1966C433.041 88.4281 433.21 94.7898 432.438 101.071C431.642 107.355 428.435 113.083 423.495 117.047V117.047C423.495 117.047 409.156 87.3661 409.156 82.7371V94.3094C409.156 94.3094 397.593 83.8944 397.593 76.9511L391.287 85.0517H349.242L355.548 74.6367L331.373 78.1083L340.833 65.3787L303.402 117.944C303.402 117.944 281.97 58.4354 312.452 41.077Z" fill="#2F2E41"/>
<path opacity="0.2" d="M250.005 504.87L290 629.803L258 499.803L250.005 504.87Z" fill="black"/>
</g>
<defs>
<clipPath id="clip0">
<rect width="784.398" height="733.607" fill="white"/>
</clipPath>
</defs>
</svg>
